<svg id="svg" version="1.1" xmlns="http://www.w3.org/2000/svg" xmlns:xlink="http://www.w3.org/1999/xlink" width="400" height="400" viewBox="0, 0, 400,400"><g id="svgg"><path id="path0" d="M204.100 94.276 L 203.200 94.456 203.200 193.428 L 203.200 292.400 249.700 292.387 C 278.612 292.379,297.259 292.222,299.000 291.972 C 300.540 291.752,302.880 291.389,304.200 291.167 C 305.520 290.944,307.320 290.662,308.200 290.540 C 309.080 290.418,309.971 290.156,310.180 289.959 C 310.389 289.762,310.963 289.600,311.456 289.600 C 311.949 289.600,312.464 289.420,312.600 289.200 C 312.736 288.980,313.143 288.800,313.504 288.800 C 314.525 288.800,321.489 286.029,324.613 284.379 C 332.300 280.321,338.398 274.884,343.237 267.777 C 346.540 262.925,347.108 261.858,349.612 255.800 C 350.519 253.606,351.997 247.827,352.885 243.000 C 353.522 239.537,353.529 221.981,352.894 218.800 C 352.286 215.751,350.829 210.401,350.376 209.555 C 350.169 209.169,350.000 208.515,350.000 208.101 C 350.000 207.688,349.665 206.641,349.256 205.775 C 348.847 204.909,348.183 203.435,347.779 202.500 C 347.376 201.565,346.901 200.800,346.723 200.800 C 346.545 200.800,346.400 200.440,346.400 200.000 C 346.400 199.560,346.225 199.200,346.010 199.200 C 345.796 199.200,345.325 198.615,344.963 197.900 C 344.602 197.185,343.991 196.240,343.606 195.800 C 342.619 194.674,342.285 192.973,342.923 192.329 C 343.212 192.038,343.719 191.260,344.050 190.600 C 344.382 189.940,344.857 189.040,345.106 188.600 C 346.747 185.703,349.184 179.565,349.194 178.300 C 349.197 177.915,349.363 177.600,349.561 177.600 C 349.760 177.600,350.021 176.745,350.142 175.700 C 350.263 174.655,350.721 171.640,351.161 169.000 C 352.331 161.967,352.256 147.522,351.016 141.400 C 350.882 140.740,350.580 139.210,350.345 138.000 C 350.109 136.790,349.775 135.440,349.602 135.000 C 349.429 134.560,349.014 133.300,348.680 132.200 C 347.929 129.727,345.987 125.197,344.649 122.800 C 344.097 121.810,343.243 120.235,342.751 119.300 C 342.260 118.365,341.710 117.600,341.529 117.600 C 341.348 117.600,341.200 117.426,341.200 117.214 C 341.200 116.389,334.526 109.485,331.400 107.077 C 330.080 106.060,328.468 104.817,327.817 104.314 C 326.515 103.309,325.415 102.673,323.000 101.529 C 322.120 101.112,321.097 100.603,320.727 100.399 C 319.577 99.764,313.089 97.551,311.260 97.171 C 310.302 96.972,308.850 96.629,308.033 96.409 C 300.794 94.460,299.585 94.409,260.674 94.404 C 236.329 94.401,223.689 94.538,223.181 94.810 C 222.375 95.241,221.943 174.772,222.727 178.386 C 223.144 180.312,221.185 180.228,259.800 179.970 C 297.498 179.718,297.306 179.730,302.391 177.263 C 306.889 175.080,312.800 167.912,312.800 164.639 C 312.800 164.156,312.989 163.571,313.220 163.340 C 313.694 162.866,313.512 151.113,312.994 148.800 C 312.265 145.545,308.611 139.804,305.400 136.869 C 299.132 131.141,289.890 130.127,252.495 131.065 L 241.990 131.329 242.095 145.964 L 242.200 160.600 245.600 160.722 C 247.470 160.789,249.585 160.735,250.300 160.604 L 251.600 160.364 251.600 151.031 C 251.600 143.079,251.692 141.622,252.222 141.182 C 253.127 140.431,293.247 140.619,295.000 141.383 C 295.660 141.671,296.792 142.132,297.516 142.408 C 301.165 143.800,304.437 150.513,304.373 156.477 C 304.300 163.342,301.651 167.459,296.063 169.390 C 294.134 170.057,232.991 170.351,232.337 169.697 C 232.107 169.467,231.841 119.119,231.993 104.743 C 232.005 103.607,232.710 103.579,261.160 103.595 C 287.229 103.611,293.536 103.807,300.000 104.803 C 301.430 105.023,303.230 105.300,304.000 105.418 C 305.930 105.714,311.746 107.304,313.400 107.988 C 325.788 113.108,333.551 120.337,338.295 131.168 C 342.364 140.458,344.614 163.108,341.960 168.074 C 341.762 168.444,341.600 169.325,341.600 170.031 C 341.600 174.256,336.935 185.621,333.163 190.583 C 332.193 191.858,331.168 193.216,330.885 193.601 C 330.434 194.211,330.636 194.573,332.485 196.479 C 337.914 202.075,340.335 205.297,341.156 208.021 C 341.450 209.000,341.827 210.160,341.992 210.600 C 342.685 212.442,343.200 215.355,343.200 217.432 C 343.200 218.653,343.401 220.029,343.648 220.489 C 344.995 223.007,343.604 246.556,342.014 248.146 C 341.786 248.374,341.600 249.016,341.600 249.572 C 341.600 251.843,338.313 258.916,335.700 262.267 C 334.985 263.184,334.400 264.117,334.400 264.341 C 334.400 264.973,327.634 271.423,325.400 272.921 C 321.547 275.506,320.187 276.320,318.600 276.993 C 317.720 277.366,316.507 277.934,315.905 278.255 C 314.307 279.107,308.575 280.806,305.800 281.250 C 304.480 281.461,302.320 281.833,301.000 282.076 C 299.377 282.375,284.778 282.565,255.901 282.663 L 213.202 282.807 213.101 188.504 L 213.000 94.200 209.000 94.148 C 206.800 94.119,204.595 94.177,204.100 94.276 M242.387 113.784 C 242.727 114.194,242.836 115.593,242.740 118.289 L 242.600 122.200 271.000 122.403 L 299.400 122.607 302.400 123.776 C 308.547 126.171,314.965 130.924,317.483 134.945 C 318.053 135.855,318.641 136.690,318.789 136.800 C 319.154 137.071,321.794 142.611,322.506 144.600 C 325.301 152.406,324.082 165.985,319.974 172.800 C 319.775 173.130,319.361 173.954,319.055 174.631 C 317.423 178.239,313.113 182.584,308.951 184.815 C 307.658 185.508,306.429 186.239,306.220 186.438 C 306.011 186.637,305.462 186.800,305.000 186.800 C 304.538 186.800,303.989 186.970,303.780 187.177 C 302.475 188.472,299.881 188.571,261.600 188.786 L 223.400 189.000 223.286 193.368 C 223.169 197.816,223.428 198.676,224.736 198.195 C 225.031 198.086,225.406 198.080,225.569 198.181 C 225.733 198.282,242.502 198.432,262.833 198.514 L 299.800 198.663 303.400 199.866 C 316.960 204.401,324.297 214.601,325.075 230.000 C 325.651 241.412,322.385 250.279,315.589 255.756 C 314.605 256.549,313.434 257.558,312.986 257.999 C 312.538 258.440,312.035 258.800,311.867 258.800 C 311.699 258.800,310.577 259.430,309.373 260.200 C 308.169 260.970,306.929 261.600,306.616 261.600 C 306.303 261.600,305.949 261.759,305.829 261.954 C 305.708 262.149,305.113 262.406,304.505 262.526 C 303.897 262.646,301.722 263.107,299.672 263.549 C 295.839 264.377,234.634 264.853,232.693 264.070 C 231.679 263.661,231.588 218.990,232.600 218.249 C 233.047 217.922,241.659 217.854,264.307 218.000 L 295.400 218.200 298.000 219.493 C 303.415 222.184,305.573 226.341,305.092 233.156 C 304.557 240.736,300.059 245.573,293.524 245.594 C 292.492 245.597,291.536 245.780,291.400 246.000 C 290.884 246.835,253.028 246.515,252.262 245.669 C 251.689 245.035,251.600 243.772,251.600 236.256 C 251.600 226.127,252.138 227.047,246.200 227.019 L 242.200 227.000 242.095 241.300 L 241.990 255.600 267.895 255.600 C 296.608 255.599,297.156 255.559,302.426 253.041 C 305.444 251.599,309.158 248.901,309.184 248.131 C 309.193 247.873,309.626 247.153,310.147 246.531 C 311.347 245.098,313.153 241.649,313.724 239.699 C 314.590 236.738,314.141 223.182,313.156 222.573 C 312.960 222.452,312.800 221.998,312.800 221.564 C 312.800 221.130,312.530 220.671,312.200 220.545 C 311.870 220.418,311.600 219.944,311.600 219.491 C 311.600 218.591,311.560 218.540,307.985 214.900 C 306.635 213.525,305.349 212.400,305.127 212.400 C 304.905 212.400,304.246 212.071,303.662 211.668 C 302.649 210.971,300.026 209.902,296.640 208.809 C 294.347 208.068,223.208 208.145,222.738 208.889 C 222.079 209.931,222.531 273.186,223.200 273.604 C 223.988 274.095,291.602 274.077,297.200 273.583 C 303.055 273.067,304.369 272.834,306.200 271.987 C 307.080 271.580,308.297 271.126,308.904 270.979 C 309.511 270.832,310.106 270.551,310.227 270.356 C 310.348 270.160,310.887 270.000,311.424 270.000 C 311.961 270.000,312.400 269.816,312.400 269.590 C 312.400 269.365,312.805 269.001,313.300 268.782 C 314.902 268.073,319.989 264.584,321.849 262.919 C 325.615 259.545,332.400 249.208,332.400 246.843 C 332.400 246.405,332.580 245.936,332.800 245.800 C 333.020 245.664,333.200 245.124,333.200 244.600 C 333.200 244.076,333.358 243.549,333.551 243.430 C 334.780 242.671,334.827 220.800,333.600 220.800 C 333.437 220.800,333.206 220.193,333.086 219.452 C 332.966 218.710,332.492 217.280,332.034 216.274 C 331.575 215.267,331.200 214.239,331.200 213.988 C 331.200 213.181,327.818 207.039,326.589 205.615 C 322.745 201.158,317.944 196.800,316.877 196.800 C 316.704 196.800,315.854 196.075,314.989 195.189 L 313.415 193.577 314.608 192.603 C 315.263 192.067,315.994 191.622,316.230 191.614 C 316.467 191.606,317.083 191.150,317.600 190.600 C 318.117 190.050,318.706 189.600,318.909 189.600 C 319.296 189.600,324.400 184.514,324.400 184.128 C 324.400 184.006,324.904 183.332,325.519 182.631 C 326.666 181.325,330.076 174.993,330.598 173.200 C 330.758 172.650,331.121 171.660,331.404 171.000 C 334.356 164.123,334.640 150.264,332.017 141.200 C 331.539 139.550,330.980 138.029,330.774 137.820 C 330.568 137.611,330.400 137.062,330.400 136.600 C 330.400 136.138,330.244 135.589,330.054 135.380 C 329.864 135.171,329.028 133.740,328.195 132.200 C 325.904 127.960,321.688 122.923,318.800 120.974 C 318.030 120.454,316.680 119.527,315.800 118.915 C 314.920 118.302,313.750 117.599,313.200 117.354 C 312.650 117.109,311.370 116.524,310.356 116.054 C 309.342 115.584,308.379 115.200,308.217 115.200 C 308.054 115.200,307.354 114.944,306.660 114.631 C 304.281 113.557,302.128 113.477,272.047 113.333 C 245.410 113.207,241.951 113.259,242.387 113.784 " stroke="none" fill="#5d6761" fill-rule="evenodd"></path><path id="path1" d="M0.000 200.000 L 0.000 400.000 200.000 400.000 L 400.000 400.000 400.000 200.000 L 400.000 0.000 200.000 0.000 L 0.000 0.000 0.000 200.000 M103.900 94.276 C 104.875 95.595,104.604 273.463,103.626 273.986 C 102.621 274.524,95.379 274.524,94.374 273.986 C 93.613 273.579,93.600 272.216,93.600 190.012 C 93.600 136.687,93.459 106.081,93.210 105.426 C 92.721 104.140,85.917 103.796,85.443 105.033 C 85.092 105.946,85.155 281.711,85.506 282.259 C 85.934 282.927,177.360 282.800,178.030 282.130 C 178.368 281.792,178.514 278.089,178.550 268.943 L 178.600 256.225 176.800 255.890 C 175.810 255.706,165.495 255.621,153.877 255.702 C 142.260 255.783,132.679 255.728,132.587 255.578 C 132.039 254.693,131.992 246.104,132.532 245.656 C 133.198 245.104,188.319 244.959,188.868 245.508 C 189.040 245.680,189.230 256.293,189.290 269.092 L 189.400 292.363 188.481 292.781 C 186.896 293.504,75.824 293.352,75.223 292.627 C 74.637 291.922,74.586 94.540,75.171 93.834 C 75.843 93.024,103.287 93.446,103.900 94.276 M123.476 94.105 C 123.900 94.529,123.998 110.180,124.002 178.467 C 124.007 255.801,124.058 262.350,124.665 262.854 C 125.202 263.299,129.382 263.410,147.299 263.457 C 159.385 263.488,169.424 263.668,169.607 263.857 C 170.394 264.666,170.227 273.245,169.413 273.840 C 168.182 274.740,114.189 274.669,113.843 273.767 C 113.488 272.843,113.557 94.686,113.913 94.128 C 114.539 93.142,122.495 93.123,123.476 94.105 M213.501 187.700 L 213.602 282.000 252.501 282.088 C 297.212 282.189,293.114 282.231,298.000 281.618 C 300.090 281.356,302.520 281.055,303.400 280.948 C 304.280 280.842,305.360 280.599,305.800 280.410 C 306.240 280.220,307.860 279.759,309.400 279.386 C 310.940 279.012,312.740 278.474,313.400 278.191 C 314.060 277.908,315.770 277.188,317.200 276.592 C 318.630 275.995,321.046 274.673,322.568 273.654 C 324.090 272.634,325.710 271.582,326.168 271.315 C 329.648 269.286,336.959 259.880,338.639 255.269 C 339.013 254.241,339.675 252.590,340.108 251.600 C 341.127 249.276,341.699 246.858,342.758 240.400 C 343.304 237.069,343.302 222.657,342.755 219.000 C 341.039 207.523,340.701 206.850,331.900 197.355 C 328.789 193.999,328.818 194.093,330.400 192.400 C 331.060 191.693,331.601 190.999,331.602 190.858 C 331.603 190.716,332.143 190.025,332.802 189.322 C 333.461 188.619,334.000 187.895,334.000 187.715 C 334.000 187.534,334.420 186.759,334.932 185.993 C 336.647 183.432,339.440 176.294,340.252 172.400 C 340.366 171.850,340.614 171.040,340.802 170.600 C 341.709 168.480,342.181 149.971,341.455 145.000 C 340.911 141.271,339.550 136.772,337.583 132.200 C 334.283 124.528,331.514 120.770,325.797 116.206 C 324.699 115.329,323.480 114.321,323.088 113.965 C 320.973 112.044,309.960 107.484,304.900 106.435 C 303.745 106.196,301.945 105.823,300.900 105.606 C 295.477 104.481,234.925 103.872,233.296 104.926 C 232.771 105.266,232.533 167.639,233.051 168.990 C 233.493 170.142,290.837 169.864,294.833 168.690 C 304.384 165.887,306.753 152.811,299.108 145.089 C 295.539 141.484,296.404 141.600,273.167 141.600 L 252.800 141.600 252.800 151.186 C 252.800 162.513,253.314 161.603,246.926 161.594 C 240.992 161.585,241.574 163.343,241.695 145.773 L 241.800 130.600 267.200 130.487 C 295.554 130.361,295.858 130.384,301.473 133.086 C 306.667 135.586,313.200 143.632,313.200 147.531 C 313.200 147.921,313.355 148.411,313.545 148.620 C 314.868 150.075,314.915 161.832,313.611 165.000 C 311.442 170.270,311.091 170.907,308.991 173.400 C 306.941 175.834,302.356 178.553,298.298 179.741 C 295.438 180.579,294.918 180.590,258.800 180.595 L 222.200 180.600 222.090 137.800 C 222.030 114.260,222.079 94.591,222.200 94.091 L 222.420 93.182 258.710 93.361 C 292.902 93.529,298.053 93.682,305.037 94.735 C 312.633 95.880,325.660 100.931,329.026 104.038 C 329.480 104.457,330.055 104.800,330.303 104.800 C 330.551 104.800,330.990 105.118,331.277 105.507 C 331.565 105.896,332.323 106.548,332.963 106.957 C 335.591 108.637,341.685 115.531,343.464 118.836 C 343.869 119.588,344.612 120.781,345.116 121.486 C 346.225 123.038,348.048 127.340,349.641 132.164 C 354.751 147.635,354.137 169.721,348.199 184.040 C 346.708 187.635,344.362 192.376,343.948 192.632 C 343.301 193.032,343.595 193.935,345.132 196.272 C 346.881 198.929,350.535 206.311,351.136 208.400 C 352.818 214.253,353.180 215.750,353.557 218.400 C 354.407 224.377,354.891 230.647,354.669 232.800 C 354.545 234.010,354.266 236.980,354.051 239.400 C 353.836 241.820,353.545 244.520,353.406 245.400 C 353.009 247.901,350.908 255.484,350.414 256.200 C 350.262 256.420,349.810 257.500,349.410 258.600 C 348.044 262.356,344.639 268.317,342.321 271.011 C 337.974 276.063,329.295 283.600,327.826 283.600 C 327.672 283.600,326.974 284.024,326.273 284.543 C 324.625 285.764,317.850 288.630,314.675 289.450 C 313.314 289.801,311.840 290.237,311.400 290.417 C 310.960 290.598,310.060 290.838,309.400 290.952 C 308.740 291.065,306.400 291.507,304.200 291.935 C 296.361 293.458,291.280 293.604,246.343 293.602 C 207.086 293.600,202.862 293.539,202.643 292.967 C 202.323 292.133,202.327 94.656,202.647 93.821 C 202.860 93.267,203.621 93.193,208.147 93.289 L 213.400 93.400 213.501 187.700 M301.200 112.639 C 307.907 113.974,308.634 114.178,311.896 115.640 C 312.828 116.058,313.689 116.400,313.809 116.400 C 315.220 116.400,322.725 122.739,325.647 126.400 C 328.530 130.012,332.132 137.258,332.660 140.509 C 332.795 141.339,333.061 142.114,333.253 142.232 C 333.444 142.351,333.600 143.168,333.600 144.050 C 333.600 144.931,333.796 146.019,334.036 146.468 C 334.602 147.526,334.630 161.837,334.069 163.656 C 333.841 164.395,333.441 166.227,333.179 167.728 C 331.571 176.933,324.324 187.929,317.057 192.188 C 314.578 193.641,314.633 193.777,318.993 196.939 C 322.502 199.483,327.200 204.179,327.200 205.141 C 327.200 205.371,327.641 206.035,328.181 206.617 C 330.445 209.060,333.404 216.265,334.581 222.200 C 335.856 228.633,335.503 242.526,334.012 244.600 C 333.854 244.820,333.486 245.900,333.194 247.000 C 331.088 254.951,323.297 264.528,315.600 268.628 C 314.390 269.273,313.310 269.897,313.200 270.016 C 312.830 270.415,308.030 272.434,306.106 273.001 C 299.909 274.824,300.299 274.810,260.168 274.702 L 222.200 274.600 222.105 241.200 C 222.052 222.830,222.142 207.620,222.305 207.400 C 222.624 206.967,293.549 207.250,295.000 207.690 C 295.440 207.823,296.880 208.165,298.200 208.451 C 315.296 212.145,321.578 235.690,309.119 249.375 C 306.592 252.152,302.586 254.539,299.329 255.211 C 293.879 256.336,291.591 256.414,267.200 256.309 L 241.800 256.200 241.800 241.400 L 241.800 226.600 246.400 226.484 C 253.502 226.305,252.766 225.238,252.893 235.906 L 253.000 245.000 273.800 244.984 C 295.570 244.967,297.131 244.854,298.820 243.176 C 299.166 242.832,299.813 242.292,300.258 241.976 C 305.468 238.272,305.473 226.903,300.268 222.105 C 296.611 218.734,297.144 218.780,262.929 218.897 L 233.000 219.000 233.000 241.000 L 233.000 263.000 266.400 263.000 L 299.800 263.000 302.928 261.891 C 308.029 260.084,312.561 257.535,314.751 255.242 C 319.024 250.768,320.439 248.990,321.157 247.194 C 325.945 235.208,325.571 225.584,319.869 214.042 C 318.492 211.255,313.600 205.874,311.200 204.505 C 306.940 202.075,304.975 201.191,301.951 200.341 L 298.600 199.400 260.400 199.200 L 222.200 199.000 222.200 193.800 L 222.200 188.600 260.000 188.379 C 280.790 188.257,298.250 188.016,298.800 187.843 C 299.350 187.670,301.015 187.170,302.500 186.731 C 307.169 185.352,316.400 178.861,316.400 176.958 C 316.400 176.789,316.756 176.272,317.192 175.809 C 322.111 170.573,324.669 154.962,322.014 146.378 C 320.662 142.006,319.199 138.770,317.943 137.374 C 317.534 136.920,317.200 136.347,317.200 136.100 C 317.200 135.607,312.603 130.948,310.118 128.921 C 308.141 127.309,305.483 125.971,301.400 124.532 L 298.200 123.405 270.000 123.202 L 241.800 123.000 241.687 118.056 C 241.612 114.753,241.728 112.928,242.036 112.556 C 242.745 111.703,296.877 111.779,301.200 112.639 " stroke="none" fill="#040404" fill-rule="evenodd"></path><path id="path2" d="M93.200 94.699 C 88.999 94.759,85.854 94.979,85.335 95.248 C 84.482 95.692,80.568 95.545,78.335 94.987 C 75.755 94.341,75.946 86.506,75.925 193.635 L 75.905 290.525 76.853 291.254 C 77.758 291.950,80.160 291.982,131.200 291.984 L 184.600 291.986 186.000 290.301 L 187.400 288.617 187.603 268.409 C 187.803 248.465,187.795 248.190,186.990 247.400 C 185.978 246.407,136.828 245.852,134.734 246.810 C 132.825 247.683,132.830 252.677,134.741 253.929 C 136.047 254.786,169.527 255.188,171.063 254.366 C 171.717 254.016,172.259 254.012,173.227 254.350 C 173.938 254.597,175.168 254.813,175.960 254.829 C 176.752 254.845,177.940 255.175,178.600 255.562 L 179.800 256.266 179.822 265.033 C 179.843 273.596,180.115 276.976,180.817 277.411 C 181.160 277.622,181.052 278.226,180.392 279.800 C 180.207 280.240,179.837 281.320,179.570 282.200 C 178.873 284.497,176.176 285.157,172.397 283.956 C 171.414 283.643,158.265 283.495,128.000 283.456 L 85.000 283.400 84.696 274.200 C 84.311 262.568,84.571 105.370,84.978 103.937 C 85.387 102.492,89.698 101.842,92.575 102.792 C 94.926 103.568,96.985 111.975,95.249 113.711 C 94.745 114.215,94.589 239.117,95.066 259.819 C 95.328 271.150,95.350 271.386,96.248 272.285 C 97.252 273.288,99.864 273.536,101.775 272.810 L 102.802 272.419 102.701 184.361 L 102.600 96.303 101.400 95.451 C 100.271 94.651,99.784 94.606,93.200 94.699 M117.360 95.668 C 116.062 96.099,114.774 96.746,114.497 97.106 C 114.096 97.628,114.015 115.512,114.097 185.380 L 114.200 273.000 141.080 273.000 C 170.798 273.000,169.270 273.142,168.553 270.454 C 168.310 269.545,168.282 268.531,168.483 267.986 C 168.762 267.233,168.608 266.862,167.652 265.989 L 166.479 264.917 157.325 264.630 C 152.290 264.472,142.957 264.386,136.585 264.440 C 124.295 264.545,123.421 264.432,122.990 262.688 C 122.869 262.200,122.732 224.720,122.685 179.400 C 122.638 134.080,122.451 96.698,122.268 96.328 C 121.634 95.046,119.924 94.816,117.360 95.668 " stroke="none" fill="#044c36" fill-rule="evenodd"></path><path id="path3" d="M75.171 93.834 C 74.586 94.540,74.637 291.922,75.223 292.627 C 75.824 293.352,186.896 293.504,188.481 292.781 L 189.400 292.363 189.290 269.092 C 189.230 256.293,189.040 245.680,188.868 245.508 C 188.319 244.959,133.198 245.104,132.532 245.656 C 131.992 246.104,132.039 254.693,132.587 255.578 C 132.679 255.728,142.260 255.783,153.877 255.702 C 165.495 255.621,175.810 255.706,176.800 255.890 L 178.600 256.225 178.550 268.943 C 178.514 278.089,178.368 281.792,178.030 282.130 C 177.360 282.800,85.934 282.927,85.506 282.259 C 85.155 281.711,85.092 105.946,85.443 105.033 C 85.917 103.796,92.721 104.140,93.210 105.426 C 93.459 106.081,93.600 136.687,93.600 190.012 C 93.600 272.216,93.613 273.579,94.374 273.986 C 95.379 274.524,102.621 274.524,103.626 273.986 C 104.604 273.463,104.875 95.595,103.900 94.276 C 103.287 93.446,75.843 93.024,75.171 93.834 M116.007 93.474 C 115.020 93.573,114.078 93.868,113.913 94.128 C 113.557 94.686,113.488 272.843,113.843 273.767 C 114.189 274.669,168.182 274.740,169.413 273.840 C 170.227 273.245,170.394 264.666,169.607 263.857 C 169.424 263.668,159.385 263.488,147.299 263.457 C 129.382 263.410,125.202 263.299,124.665 262.854 C 124.058 262.350,124.007 255.801,124.002 178.467 C 123.998 110.180,123.900 94.529,123.476 94.105 C 122.905 93.533,118.825 93.188,116.007 93.474 M207.999 93.493 L 213.198 93.623 213.299 187.912 L 213.400 282.200 253.400 282.400 C 283.430 282.550,294.297 282.479,297.000 282.116 L 300.600 281.632 297.200 281.880 C 292.825 282.199,297.106 282.180,252.501 282.084 L 213.602 282.000 213.501 187.700 L 213.400 93.400 208.099 93.382 L 202.799 93.364 207.999 93.493 M222.196 94.108 C 222.077 94.599,222.030 114.260,222.090 137.800 L 222.200 180.600 257.401 180.702 C 286.980 180.788,293.049 180.711,295.401 180.221 C 296.941 179.900,297.480 179.745,296.600 179.875 C 295.720 180.006,278.665 180.182,258.700 180.266 L 222.400 180.420 222.400 137.210 L 222.400 94.000 223.500 93.984 C 224.105 93.975,240.620 93.953,260.200 93.935 C 279.780 93.918,294.810 93.762,293.600 93.589 C 292.390 93.416,275.877 93.262,256.905 93.246 L 222.411 93.217 222.196 94.108 M202.499 193.067 C 202.445 247.664,202.509 292.619,202.643 292.967 C 202.896 293.626,287.821 293.896,293.800 293.257 C 295.120 293.115,275.521 293.050,250.247 293.110 C 224.974 293.171,203.959 293.114,203.548 292.984 C 202.822 292.753,202.799 289.978,202.700 193.273 L 202.598 93.800 202.499 193.067 M298.000 94.244 C 303.149 94.643,312.607 96.718,316.955 98.401 C 318.691 99.073,320.183 99.551,320.271 99.463 C 321.409 98.325,305.715 94.404,299.200 94.199 C 297.550 94.147,297.010 94.168,298.000 94.244 M102.701 184.361 L 102.802 272.419 101.775 272.810 C 99.864 273.536,97.252 273.288,96.248 272.285 C 95.350 271.386,95.328 271.150,95.066 259.819 C 94.589 239.117,94.745 114.215,95.249 113.711 C 96.985 111.975,94.926 103.568,92.575 102.792 C 89.698 101.842,85.387 102.492,84.978 103.937 C 84.571 105.370,84.311 262.568,84.696 274.200 L 85.000 283.400 128.000 283.456 C 158.265 283.495,171.414 283.643,172.397 283.956 C 176.176 285.157,178.873 284.497,179.570 282.200 C 179.837 281.320,180.207 280.240,180.392 279.800 C 181.052 278.226,181.160 277.622,180.817 277.411 C 180.115 276.976,179.843 273.596,179.822 265.033 L 179.800 256.266 178.600 255.562 C 177.940 255.175,176.752 254.845,175.960 254.829 C 175.168 254.813,173.938 254.597,173.227 254.350 C 172.259 254.012,171.717 254.016,171.063 254.366 C 169.527 255.188,136.047 254.786,134.741 253.929 C 132.830 252.677,132.825 247.683,134.734 246.810 C 136.828 245.852,185.978 246.407,186.990 247.400 C 187.795 248.190,187.803 248.465,187.603 268.409 L 187.400 288.617 186.000 290.301 L 184.600 291.986 131.200 291.984 C 80.160 291.982,77.758 291.950,76.853 291.254 L 75.905 290.525 75.925 193.635 C 75.946 86.506,75.755 94.341,78.335 94.987 C 80.568 95.545,84.482 95.692,85.335 95.248 C 87.133 94.314,100.027 94.477,101.400 95.451 L 102.600 96.303 102.701 184.361 M122.268 96.328 C 122.451 96.698,122.638 134.080,122.685 179.400 C 122.732 224.720,122.869 262.200,122.990 262.688 C 123.421 264.432,124.295 264.545,136.585 264.440 C 142.957 264.386,152.290 264.472,157.325 264.630 L 166.479 264.917 167.652 265.989 C 168.608 266.862,168.762 267.233,168.483 267.986 C 168.282 268.531,168.310 269.545,168.553 270.454 C 169.270 273.142,170.798 273.000,141.080 273.000 L 114.200 273.000 114.097 185.380 C 114.015 115.512,114.096 97.628,114.497 97.106 C 115.994 95.158,121.421 94.614,122.268 96.328 M320.800 99.795 C 320.800 99.902,322.054 100.609,323.587 101.367 C 335.502 107.255,345.080 118.786,349.199 132.200 C 349.807 134.180,350.502 136.430,350.743 137.200 L 351.182 138.600 350.964 137.054 C 350.488 133.674,346.792 123.832,345.116 121.486 C 344.612 120.781,343.869 119.588,343.464 118.836 C 341.685 115.531,335.591 108.637,332.963 106.957 C 332.323 106.548,331.565 105.896,331.277 105.507 C 330.990 105.118,330.551 104.800,330.303 104.800 C 330.055 104.800,329.480 104.457,329.026 104.038 C 327.787 102.894,320.800 99.290,320.800 99.795 M232.880 104.480 C 232.050 105.310,232.200 169.438,233.033 169.757 C 234.017 170.135,234.108 170.051,233.437 169.380 C 232.420 168.363,232.478 105.307,233.496 104.889 C 233.883 104.730,247.880 104.600,264.600 104.600 C 281.320 104.600,293.650 104.489,292.000 104.352 C 285.943 103.852,233.394 103.966,232.880 104.480 M296.307 105.090 C 297.026 105.179,298.106 105.177,298.707 105.086 C 299.308 104.995,298.720 104.922,297.400 104.924 C 296.080 104.926,295.588 105.001,296.307 105.090 M300.600 105.590 C 301.364 105.928,303.914 106.157,303.567 105.856 C 303.475 105.776,302.590 105.604,301.600 105.473 C 300.398 105.314,300.066 105.353,300.600 105.590 M305.000 106.400 C 305.440 106.589,306.160 106.744,306.600 106.744 L 307.400 106.744 306.600 106.400 C 306.160 106.211,305.440 106.056,305.000 106.056 L 304.200 106.056 305.000 106.400 M307.633 106.959 C 307.725 107.046,309.240 107.605,311.000 108.200 C 314.512 109.388,321.961 112.941,323.088 113.965 C 323.480 114.321,324.699 115.329,325.797 116.206 C 328.518 118.378,331.050 121.008,333.200 123.894 C 334.190 125.223,335.062 126.254,335.137 126.185 C 335.466 125.883,330.715 119.998,328.463 117.917 C 324.177 113.958,318.278 110.319,313.000 108.379 C 309.072 106.934,307.044 106.398,307.633 106.959 M242.036 112.556 C 241.728 112.928,241.612 114.753,241.687 118.056 L 241.800 123.000 270.000 123.202 L 298.200 123.405 301.400 124.532 C 307.429 126.657,309.489 127.975,314.258 132.762 C 315.662 134.170,316.893 135.241,316.994 135.140 C 318.226 133.907,307.740 126.336,301.800 124.169 L 298.600 123.001 270.300 122.881 L 242.000 122.760 242.000 117.814 L 242.000 112.868 244.900 112.605 C 246.495 112.460,259.844 112.399,274.564 112.471 C 289.284 112.542,300.624 112.475,299.764 112.323 C 296.453 111.737,242.536 111.954,242.036 112.556 M308.000 114.571 C 317.632 118.056,324.239 123.648,328.873 132.240 C 330.412 135.094,331.047 135.963,330.525 134.500 C 328.457 128.711,317.088 116.400,313.809 116.400 C 313.689 116.400,312.828 116.062,311.896 115.649 C 309.391 114.540,306.654 113.598,305.987 113.615 C 305.664 113.623,306.570 114.053,308.000 114.571 M335.221 127.020 C 335.209 127.251,335.358 127.611,335.551 127.820 C 336.054 128.366,339.062 135.488,339.640 137.503 C 339.908 138.439,340.215 139.118,340.322 139.012 C 340.597 138.737,339.301 134.766,337.841 131.409 C 336.561 128.464,335.258 126.282,335.221 127.020 M241.867 130.667 C 241.218 131.316,241.573 161.104,242.233 161.357 C 243.296 161.765,251.202 161.627,252.026 161.186 C 252.758 160.794,252.800 160.254,252.800 151.179 L 252.800 141.586 273.500 141.693 C 284.885 141.752,294.560 141.946,295.000 142.125 C 295.440 142.304,295.325 142.174,294.744 141.836 C 293.576 141.155,253.424 140.816,252.760 141.480 C 252.583 141.657,252.407 145.992,252.370 151.113 C 252.290 162.121,252.784 161.279,246.501 161.114 L 242.200 161.000 242.095 145.900 L 241.990 130.800 267.429 130.800 C 300.516 130.800,303.357 131.469,309.489 140.708 C 310.265 141.877,310.985 142.749,311.089 142.645 C 311.963 141.770,305.332 134.993,301.897 133.249 C 296.379 130.448,295.916 130.410,267.567 130.405 C 253.578 130.402,242.013 130.520,241.867 130.667 M317.200 136.097 C 317.200 136.430,317.484 136.938,317.831 137.226 C 318.178 137.514,318.910 138.634,319.458 139.715 C 320.006 140.795,320.534 141.599,320.633 141.501 C 320.841 141.293,318.995 137.845,317.928 136.446 C 317.432 135.796,317.200 135.685,317.200 136.097 M330.889 136.000 C 331.074 136.898,332.451 141.284,332.836 142.200 C 333.021 142.640,333.241 143.540,333.326 144.200 C 333.464 145.276,333.486 145.247,333.540 143.924 C 333.573 143.112,333.444 142.351,333.253 142.232 C 333.061 142.114,332.793 141.317,332.656 140.460 C 332.519 139.604,332.038 138.115,331.586 137.152 C 331.135 136.188,330.821 135.670,330.889 136.000 M351.200 140.310 C 351.200 141.213,351.363 142.053,351.562 142.176 C 351.768 142.304,351.831 141.670,351.707 140.700 C 351.419 138.448,351.200 138.279,351.200 140.310 M340.434 140.200 C 340.422 140.640,340.587 141.270,340.800 141.600 C 341.314 142.395,341.314 141.396,340.800 140.200 L 340.456 139.400 340.434 140.200 M320.800 142.373 C 320.800 142.579,321.364 144.499,322.054 146.640 C 324.691 154.831,322.058 170.629,317.192 175.809 C 316.756 176.272,316.400 176.789,316.400 176.958 C 316.400 177.443,311.549 182.000,309.934 183.031 C 308.508 183.941,307.677 184.800,308.221 184.800 C 310.209 184.800,317.488 176.855,319.766 172.200 C 322.938 165.718,324.728 153.746,323.239 148.960 C 323.041 148.322,322.478 146.495,321.989 144.900 C 321.167 142.220,320.800 141.440,320.800 142.373 M297.729 143.808 C 306.694 150.653,305.041 165.995,295.056 168.619 C 293.485 169.032,292.518 169.435,292.906 169.515 C 294.702 169.886,298.738 167.980,300.697 165.837 C 306.100 159.925,304.250 146.439,297.560 142.980 C 295.716 142.026,295.775 142.316,297.729 143.808 M341.228 144.233 C 341.244 145.095,341.417 146.160,341.614 146.600 C 341.848 147.122,341.888 146.637,341.732 145.200 C 341.443 142.558,341.189 142.070,341.228 144.233 M352.319 146.200 C 352.748 152.167,352.605 163.343,352.052 167.000 C 351.752 168.980,351.449 171.320,351.378 172.200 L 351.249 173.800 351.570 172.200 C 353.256 163.802,353.597 153.600,352.458 145.600 C 352.090 143.010,352.089 143.012,352.319 146.200 M312.014 144.854 C 312.006 144.994,312.263 145.714,312.584 146.454 C 312.906 147.194,313.169 147.530,313.170 147.200 C 313.172 146.624,312.043 144.334,312.014 144.854 M333.850 147.600 C 334.175 149.841,334.402 150.160,334.394 148.367 C 334.391 147.615,334.208 146.730,333.988 146.400 C 333.709 145.981,333.667 146.342,333.850 147.600 M342.170 156.400 C 342.170 161.130,342.228 163.065,342.298 160.700 C 342.369 158.335,342.369 154.465,342.298 152.100 C 342.228 149.735,342.170 151.670,342.170 156.400 M313.440 149.466 C 313.808 150.999,314.000 151.144,314.000 149.890 C 314.000 149.317,313.813 148.732,313.584 148.590 C 313.311 148.421,313.262 148.723,313.440 149.466 M314.139 156.600 C 314.144 161.543,314.163 161.665,314.523 159.066 C 314.764 157.331,314.762 155.429,314.518 153.866 C 314.166 151.609,314.134 151.841,314.139 156.600 M334.501 155.000 C 334.505 155.880,334.587 156.193,334.683 155.695 C 334.779 155.198,334.775 154.478,334.675 154.095 C 334.575 153.713,334.496 154.120,334.501 155.000 M334.070 161.067 C 334.031 161.984,333.896 163.064,333.770 163.467 C 333.553 164.156,333.567 164.157,333.993 163.495 C 334.242 163.107,334.377 162.027,334.293 161.095 L 334.140 159.400 334.070 161.067 M313.462 163.747 C 313.297 164.378,313.256 164.989,313.371 165.104 C 313.693 165.427,314.087 164.138,313.915 163.323 C 313.803 162.790,313.684 162.901,313.462 163.747 M332.848 167.675 C 332.554 169.284,332.190 170.780,332.040 171.000 C 331.890 171.220,331.527 172.120,331.235 173.000 C 329.769 177.406,326.168 183.261,322.744 186.804 C 320.842 188.772,317.044 192.000,316.630 192.000 C 316.488 192.000,315.932 192.288,315.394 192.641 C 314.004 193.551,314.508 194.248,318.936 197.532 C 320.984 199.051,323.627 201.393,324.809 202.735 C 325.990 204.078,327.034 205.099,327.128 205.006 C 327.578 204.556,322.354 199.376,318.993 196.939 C 314.633 193.777,314.578 193.641,317.057 192.188 C 321.592 189.530,327.351 182.831,329.942 177.200 C 332.188 172.319,333.952 166.455,333.543 165.229 C 333.455 164.965,333.142 166.066,332.848 167.675 M341.476 166.010 C 341.330 166.555,341.227 167.450,341.246 168.000 C 341.271 168.718,341.384 168.557,341.649 167.427 C 342.055 165.695,341.900 164.425,341.476 166.010 M312.485 166.813 C 312.218 167.240,312.001 167.817,312.002 168.095 C 312.004 168.373,312.277 168.078,312.610 167.440 C 313.303 166.111,313.211 165.650,312.485 166.813 M248.929 169.900 C 256.811 169.961,269.591 169.961,277.329 169.900 C 285.068 169.839,278.620 169.789,263.000 169.790 C 247.380 169.790,241.048 169.839,248.929 169.900 M308.184 173.355 C 305.435 176.132,301.228 178.800,299.596 178.800 C 299.184 178.800,298.732 178.987,298.590 179.216 C 298.146 179.934,300.423 179.193,303.400 177.651 C 306.040 176.283,309.866 172.946,310.804 171.192 C 311.374 170.128,311.395 170.111,308.184 173.355 M340.554 170.977 C 340.432 171.294,340.403 171.879,340.489 172.277 C 340.587 172.728,340.724 172.512,340.854 171.700 C 341.071 170.338,340.930 169.996,340.554 170.977 M339.582 174.861 C 338.188 179.985,334.887 186.951,332.702 189.380 C 332.098 190.051,331.603 190.716,331.602 190.858 C 331.601 190.999,331.060 191.693,330.400 192.400 C 328.818 194.093,328.789 193.999,331.900 197.355 C 337.386 203.274,339.402 205.879,340.380 208.313 C 341.085 210.066,341.296 209.754,340.659 207.902 C 340.382 207.095,339.265 205.325,338.177 203.969 C 337.090 202.613,335.759 200.940,335.220 200.252 C 334.680 199.563,333.420 198.184,332.420 197.186 C 329.316 194.091,329.371 194.260,330.901 192.529 C 334.940 187.960,341.482 174.548,340.265 173.332 C 340.150 173.216,339.843 173.905,339.582 174.861 M350.688 174.533 C 350.530 174.936,350.411 175.656,350.425 176.133 C 350.449 176.956,350.471 176.950,350.840 176.025 C 351.054 175.489,351.173 174.769,351.103 174.425 C 350.999 173.911,350.925 173.930,350.688 174.533 M349.818 178.100 C 349.731 178.375,349.446 179.320,349.183 180.200 C 348.302 183.153,344.500 191.419,343.729 192.059 C 342.925 192.727,343.096 194.356,344.100 195.592 C 344.595 196.201,345.321 197.286,345.712 198.004 C 346.104 198.721,346.525 199.209,346.647 199.086 C 346.769 198.964,346.133 197.757,345.234 196.404 C 343.602 193.946,343.292 193.038,343.948 192.632 C 345.115 191.911,351.021 177.600,350.151 177.600 C 350.054 177.600,349.904 177.825,349.818 178.100 M306.189 185.342 C 305.755 185.640,304.230 186.258,302.800 186.715 C 301.370 187.171,300.470 187.553,300.800 187.563 C 301.713 187.590,305.897 186.118,306.895 185.419 C 307.381 185.078,307.598 184.800,307.378 184.800 C 307.158 184.800,306.623 185.044,306.189 185.342 M296.600 188.000 L 294.600 188.274 296.400 188.331 C 297.390 188.362,298.470 188.213,298.800 188.000 C 299.130 187.787,299.220 187.638,299.000 187.669 C 298.780 187.700,297.700 187.849,296.600 188.000 M222.174 188.923 C 222.064 189.211,222.024 191.596,222.087 194.223 L 222.200 199.000 258.000 199.003 L 293.800 199.006 258.100 198.901 L 222.400 198.796 222.400 193.831 C 222.400 190.234,222.538 188.811,222.900 188.665 C 223.292 188.507,223.289 188.456,222.887 188.432 C 222.606 188.414,222.285 188.635,222.174 188.923 M298.800 199.600 C 299.130 199.813,299.760 199.978,300.200 199.966 L 301.000 199.944 300.200 199.600 C 299.004 199.086,298.005 199.086,298.800 199.600 M346.879 199.800 C 346.969 200.020,347.705 201.578,348.515 203.262 C 349.926 206.192,351.276 210.064,352.540 214.800 C 352.863 216.010,353.144 216.622,353.164 216.160 C 353.184 215.698,353.034 214.798,352.830 214.160 C 352.627 213.522,352.060 211.650,351.570 210.000 C 350.603 206.741,348.442 201.738,347.381 200.300 C 347.016 199.805,346.790 199.580,346.879 199.800 M303.000 200.644 C 304.100 200.967,305.450 201.449,306.000 201.715 C 315.934 206.517,320.808 212.690,323.438 223.800 C 324.311 227.487,324.461 226.618,323.679 222.400 C 322.523 216.155,316.917 207.825,311.400 204.153 C 308.586 202.280,303.107 199.964,301.640 200.028 C 301.288 200.043,301.900 200.320,303.000 200.644 M328.827 208.200 C 329.542 209.520,330.263 210.780,330.428 211.000 C 331.004 211.763,333.094 217.411,333.611 219.600 C 333.897 220.810,334.202 221.587,334.290 221.326 C 334.776 219.880,330.472 209.335,328.360 206.800 C 327.843 206.179,328.020 206.709,328.827 208.200 M222.172 207.800 C 222.067 208.240,222.029 223.450,222.090 241.600 L 222.200 274.600 260.168 274.702 C 300.299 274.810,299.909 274.824,306.106 273.001 C 308.030 272.434,312.830 270.415,313.200 270.016 C 313.310 269.897,314.390 269.273,315.600 268.628 C 322.931 264.723,331.556 254.355,332.928 247.800 C 333.166 246.659,333.158 246.649,332.750 247.600 C 327.579 259.660,319.593 267.526,308.144 271.836 C 301.261 274.426,301.753 274.400,260.156 274.400 L 222.400 274.400 222.400 240.972 L 222.400 207.544 258.700 207.672 C 278.665 207.742,293.805 207.668,292.345 207.507 C 285.076 206.704,222.373 206.966,222.172 207.800 M296.400 208.361 C 296.730 208.546,297.709 208.825,298.575 208.981 C 303.304 209.832,309.929 214.913,312.420 219.600 C 312.830 220.370,313.173 220.858,313.182 220.684 C 313.308 218.434,307.293 212.181,303.160 210.265 C 299.531 208.583,294.037 207.036,296.400 208.361 M341.234 210.600 C 341.222 211.040,341.387 211.670,341.600 212.000 C 342.114 212.795,342.114 211.796,341.600 210.600 L 341.256 209.800 341.234 210.600 M342.050 214.074 C 342.023 214.885,342.205 216.055,342.455 216.674 C 342.722 217.332,343.025 221.870,343.186 227.600 L 343.462 237.400 343.519 229.600 C 343.571 222.453,343.351 219.388,342.432 214.400 L 342.100 212.600 342.050 214.074 M353.491 219.800 C 353.611 221.340,353.775 222.675,353.855 222.767 C 354.122 223.073,353.909 219.416,353.589 218.200 C 353.398 217.472,353.359 218.102,353.491 219.800 M232.900 218.665 C 232.052 219.007,232.183 263.031,233.033 263.357 C 233.381 263.491,248.006 263.557,265.533 263.504 L 297.400 263.407 265.200 263.204 L 233.000 263.000 233.000 241.000 L 233.000 219.000 262.400 218.796 L 291.800 218.592 262.600 218.528 C 246.540 218.492,233.175 218.554,232.900 218.665 M296.136 219.786 C 305.052 222.792,307.345 237.174,299.740 242.385 C 299.003 242.890,298.400 243.460,298.400 243.652 C 298.400 243.843,297.995 244.008,297.500 244.018 C 297.005 244.028,296.060 244.300,295.400 244.622 C 294.116 245.250,294.026 245.254,297.351 244.530 C 297.985 244.392,299.525 243.272,300.773 242.040 C 307.692 235.214,305.243 221.930,296.602 219.418 C 293.370 218.478,293.037 218.741,296.136 219.786 M334.669 224.600 C 334.796 225.920,334.968 227.075,335.050 227.167 C 335.341 227.490,335.116 224.186,334.779 223.200 C 334.558 222.552,334.520 223.045,334.669 224.600 M314.034 223.800 C 314.022 224.240,314.187 224.870,314.400 225.200 C 314.914 225.995,314.914 224.996,314.400 223.800 L 314.056 223.000 314.034 223.800 M354.184 230.278 C 354.193 233.401,354.322 235.651,354.472 235.278 C 354.829 234.386,354.818 228.685,354.454 226.400 C 354.270 225.246,354.173 226.637,354.184 230.278 M241.782 226.902 C 241.676 227.178,241.637 233.883,241.695 241.802 L 241.800 256.200 267.800 256.204 L 293.800 256.209 267.900 256.101 L 242.000 255.994 242.000 241.385 L 242.000 226.776 247.100 226.888 L 252.200 227.000 252.264 235.717 C 252.299 240.511,252.428 244.696,252.551 245.017 C 252.744 245.519,255.575 245.587,272.887 245.506 L 293.000 245.411 273.000 245.206 L 253.000 245.000 252.892 236.019 C 252.813 229.446,252.652 226.954,252.292 226.725 C 251.426 226.174,242.001 226.333,241.782 226.902 M315.079 229.400 C 315.248 232.176,315.008 235.069,314.215 239.800 C 314.093 240.523,314.255 240.285,314.621 239.200 C 315.373 236.974,315.836 228.585,315.283 227.200 C 314.987 226.459,314.934 227.029,315.079 229.400 M324.550 232.200 C 324.551 234.620,324.616 235.558,324.696 234.285 C 324.776 233.012,324.775 231.032,324.694 229.885 C 324.614 228.738,324.549 229.780,324.550 232.200 M335.331 232.200 C 335.333 233.740,335.405 234.321,335.492 233.491 C 335.579 232.661,335.577 231.401,335.489 230.691 C 335.400 229.981,335.329 230.660,335.331 232.200 M324.046 238.400 C 323.939 240.100,320.993 248.082,320.000 249.361 C 319.093 250.531,316.368 253.571,314.860 255.097 C 314.123 255.843,313.603 256.536,313.705 256.638 C 313.950 256.884,317.998 252.666,319.692 250.400 C 321.985 247.331,324.662 240.275,324.282 238.301 C 324.118 237.449,324.105 237.455,324.046 238.400 M334.864 238.850 C 334.829 239.207,334.698 240.107,334.573 240.850 C 334.388 241.955,334.429 242.071,334.798 241.491 C 335.046 241.102,335.177 240.202,335.089 239.491 C 335.000 238.781,334.899 238.493,334.864 238.850 M342.695 240.600 C 342.439 242.396,342.142 244.068,341.416 247.800 C 341.034 249.765,342.296 245.589,342.806 243.200 C 343.065 241.990,343.210 240.460,343.128 239.800 C 343.008 238.819,342.929 238.965,342.695 240.600 M353.281 242.864 C 352.721 247.032,351.125 253.466,350.183 255.355 C 349.862 255.997,349.600 256.693,349.600 256.901 C 349.600 257.275,348.933 258.885,347.657 261.594 C 346.685 263.655,342.370 270.400,342.022 270.400 C 341.857 270.400,341.560 270.749,341.361 271.176 C 338.742 276.805,324.172 286.425,314.213 289.101 C 312.901 289.454,312.042 289.814,312.305 289.902 C 313.520 290.307,323.834 286.350,326.273 284.543 C 326.974 284.024,327.672 283.600,327.826 283.600 C 329.295 283.600,337.974 276.063,342.321 271.011 C 344.639 268.317,348.044 262.356,349.410 258.600 C 349.810 257.500,350.262 256.420,350.414 256.200 C 350.685 255.807,351.467 253.248,352.581 249.103 C 353.363 246.195,354.109 241.194,353.940 239.995 C 353.863 239.448,353.566 240.739,353.281 242.864 M312.778 243.098 C 309.637 249.387,306.487 252.324,300.600 254.449 C 299.490 254.850,298.980 255.178,299.454 255.186 C 302.822 255.243,310.173 249.396,312.340 244.935 C 312.858 243.871,313.455 242.667,313.668 242.261 C 313.881 241.855,313.982 241.449,313.892 241.359 C 313.802 241.269,313.301 242.051,312.778 243.098 M334.054 242.867 C 334.025 243.234,333.884 243.864,333.741 244.267 C 333.541 244.833,333.595 244.896,333.975 244.546 C 334.246 244.297,334.387 243.667,334.288 243.146 C 334.190 242.626,334.084 242.500,334.054 242.867 M340.271 251.096 C 339.912 251.923,339.249 253.613,338.798 254.851 C 336.986 259.832,329.801 269.197,326.168 271.315 C 325.710 271.582,324.090 272.634,322.568 273.654 C 321.046 274.674,318.360 276.100,316.600 276.823 C 314.840 277.546,313.239 278.277,313.042 278.446 C 312.621 278.810,314.414 278.411,315.000 278.011 C 315.220 277.861,316.300 277.409,317.400 277.008 C 320.452 275.895,326.627 271.630,330.247 268.135 C 334.740 263.796,337.703 259.205,340.224 252.672 C 341.341 249.779,341.377 248.552,340.271 251.096 M295.600 255.600 L 294.600 255.920 295.600 255.932 C 296.150 255.938,296.960 255.789,297.400 255.600 L 298.200 255.256 297.400 255.268 C 296.960 255.274,296.150 255.424,295.600 255.600 M311.800 257.619 C 307.687 260.226,301.453 262.747,298.830 262.864 L 297.400 262.928 298.677 263.088 C 301.285 263.414,309.088 260.355,312.253 257.767 C 313.630 256.641,313.441 256.579,311.800 257.619 M308.519 279.555 C 307.155 279.926,305.910 280.357,305.752 280.514 C 305.291 280.976,306.008 280.839,309.400 279.818 C 313.016 278.729,312.323 278.523,308.519 279.555 M301.400 281.200 L 300.600 281.544 301.400 281.525 C 301.840 281.514,302.740 281.368,303.400 281.200 L 304.600 280.895 303.400 280.875 C 302.740 280.865,301.840 281.011,301.400 281.200 M310.200 290.400 C 309.429 290.731,309.431 290.745,310.276 290.772 C 310.758 290.787,311.264 290.620,311.400 290.400 C 311.692 289.927,311.301 289.927,310.200 290.400 M306.800 291.200 C 306.267 291.545,306.267 291.588,306.800 291.588 C 307.130 291.588,307.670 291.413,308.000 291.200 C 308.533 290.855,308.533 290.812,308.000 290.812 C 307.670 290.812,307.130 290.987,306.800 291.200 M302.695 291.839 C 302.564 291.970,301.139 292.215,299.528 292.384 C 297.033 292.646,296.896 292.696,298.600 292.721 C 299.700 292.737,301.770 292.509,303.200 292.215 C 305.279 291.786,305.513 291.671,304.367 291.639 C 303.578 291.618,302.826 291.707,302.695 291.839 " stroke="none" fill="#173b30" fill-rule="evenodd"></path><path id="path4" d="M202.800 193.157 C 202.800 282.346,202.864 292.739,203.415 292.950 C 204.334 293.303,290.522 293.186,294.000 292.827 C 295.650 292.657,275.895 292.491,250.100 292.459 L 203.200 292.400 203.200 193.425 L 203.200 94.449 204.918 94.191 C 205.862 94.050,208.113 93.994,209.918 94.067 C 211.724 94.140,213.201 94.065,213.201 93.900 C 213.200 93.735,210.860 93.600,208.000 93.600 L 202.800 93.600 202.800 193.157 M223.500 93.927 C 222.857 94.001,222.400 94.297,222.400 94.641 C 222.400 95.098,222.572 95.136,223.174 94.814 C 223.687 94.539,236.161 94.371,260.274 94.314 C 280.253 94.267,294.530 94.178,292.000 94.117 C 285.031 93.949,224.759 93.782,223.500 93.927 M301.200 95.028 C 306.621 96.025,312.172 97.287,313.800 97.891 C 314.680 98.218,316.390 98.812,317.600 99.212 C 318.810 99.611,320.556 100.311,321.481 100.769 C 323.727 101.880,324.204 101.820,322.200 100.679 C 319.657 99.232,312.937 96.912,308.800 96.054 C 301.356 94.510,300.724 94.400,299.469 94.438 C 298.741 94.460,299.478 94.711,301.200 95.028 M324.800 102.400 C 325.350 102.830,325.956 103.186,326.147 103.191 C 326.338 103.196,327.088 103.695,327.814 104.300 C 328.540 104.905,330.003 106.030,331.064 106.800 C 333.802 108.786,341.200 116.387,341.200 117.214 C 341.200 117.426,341.348 117.600,341.529 117.600 C 341.710 117.600,342.260 118.365,342.751 119.300 C 343.243 120.235,344.097 121.810,344.649 122.800 C 345.987 125.197,347.929 129.727,348.680 132.200 C 349.014 133.300,349.429 134.560,349.602 135.000 C 349.775 135.440,350.109 136.790,350.345 138.000 C 350.580 139.210,350.886 140.740,351.023 141.400 C 351.161 142.060,351.410 143.680,351.576 145.000 L 351.878 147.400 351.939 144.924 C 351.973 143.562,351.820 142.336,351.600 142.200 C 351.380 142.064,351.200 141.330,351.200 140.569 C 351.200 129.064,339.999 111.649,327.330 103.456 C 324.420 101.574,322.971 100.970,324.800 102.400 M233.039 103.719 C 231.716 104.161,231.789 102.005,231.905 137.488 L 232.009 169.577 232.905 170.011 C 233.714 170.402,233.732 170.389,233.100 169.878 C 232.123 169.088,232.002 105.228,232.976 104.420 C 233.547 103.946,290.984 104.069,296.400 104.556 C 298.543 104.749,298.559 104.743,297.000 104.332 C 295.065 103.821,234.471 103.241,233.039 103.719 M300.400 105.200 C 301.867 105.670,303.694 105.670,302.600 105.200 C 302.160 105.011,301.260 104.862,300.600 104.868 C 299.430 104.879,299.425 104.888,300.400 105.200 M304.200 105.859 C 313.864 107.872,321.925 111.878,328.463 117.917 C 330.662 119.949,335.200 125.539,335.200 126.217 C 335.200 126.360,335.529 126.954,335.930 127.538 C 336.753 128.735,339.226 134.568,339.942 137.000 C 340.201 137.880,340.681 139.590,341.008 140.800 C 341.407 142.275,341.554 142.539,341.452 141.600 C 340.407 131.941,332.912 119.833,324.213 113.749 C 320.301 111.014,319.222 110.438,313.400 107.981 C 312.960 107.795,311.520 107.343,310.200 106.976 C 308.880 106.609,307.387 106.149,306.881 105.954 C 306.376 105.759,305.386 105.621,304.681 105.646 C 303.919 105.674,303.724 105.760,304.200 105.859 M243.400 112.755 C 242.520 112.890,255.390 113.111,272.000 113.246 C 288.610 113.381,303.010 113.605,304.000 113.745 L 305.800 113.999 303.800 113.340 C 301.739 112.662,247.449 112.136,243.400 112.755 M242.000 118.157 L 242.000 122.760 270.300 122.881 L 298.600 123.001 301.800 124.169 C 310.151 127.215,315.387 131.705,319.931 139.715 C 320.830 141.299,322.061 144.718,323.030 148.320 C 324.567 154.035,322.943 166.561,319.980 171.836 C 319.044 173.502,318.996 173.867,319.800 173.200 C 320.130 172.926,320.400 172.488,320.400 172.226 C 320.400 171.964,320.789 170.951,321.265 169.975 C 324.337 163.675,324.937 151.390,322.506 144.600 C 321.794 142.611,319.154 137.071,318.789 136.800 C 318.641 136.690,318.053 135.855,317.483 134.945 C 314.965 130.924,308.547 126.171,302.400 123.776 L 299.400 122.607 271.000 122.403 L 242.600 122.200 242.737 118.147 C 242.827 115.504,242.723 113.999,242.437 113.823 C 242.131 113.633,242.000 114.927,242.000 118.157 M306.173 114.356 C 306.294 114.551,306.889 114.834,307.496 114.983 C 308.103 115.133,309.410 115.627,310.400 116.082 C 311.390 116.537,312.650 117.109,313.200 117.354 C 313.750 117.599,314.920 118.302,315.800 118.915 C 316.680 119.527,318.030 120.454,318.800 120.974 C 321.688 122.923,325.904 127.960,328.195 132.200 C 329.028 133.740,329.864 135.171,330.054 135.380 C 330.244 135.589,330.400 136.138,330.400 136.600 C 330.400 137.062,330.568 137.611,330.774 137.820 C 330.980 138.029,331.515 139.531,331.964 141.157 C 332.413 142.783,332.875 144.208,332.990 144.324 C 333.338 144.671,333.226 142.841,332.854 142.095 C 332.664 141.713,332.083 140.050,331.564 138.400 C 328.389 128.312,320.320 119.564,310.466 115.529 C 306.647 113.965,305.786 113.730,306.173 114.356 M245.280 131.098 C 247.194 131.171,250.434 131.171,252.480 131.098 C 254.526 131.026,252.960 130.966,249.000 130.965 C 245.040 130.965,243.366 131.024,245.280 131.098 M289.000 131.227 C 300.749 131.985,307.011 135.921,311.623 145.448 C 312.101 146.435,312.571 147.162,312.668 147.065 C 312.956 146.778,311.161 143.177,309.527 140.760 C 304.997 134.062,297.935 130.731,288.533 130.859 L 284.200 130.917 289.000 131.227 M252.171 141.231 C 251.711 141.740,251.600 143.659,251.600 151.113 L 251.600 160.364 250.270 160.613 C 249.539 160.750,247.395 160.804,245.507 160.731 C 243.619 160.659,242.158 160.735,242.260 160.900 C 242.536 161.343,250.731 161.265,251.577 160.812 C 252.242 160.456,252.308 159.653,252.370 151.113 C 252.407 145.992,252.583 141.657,252.760 141.480 C 252.937 141.303,262.192 141.172,273.326 141.189 L 293.570 141.220 296.092 142.352 C 300.044 144.124,302.396 147.332,303.454 152.390 C 305.440 161.882,301.046 168.770,292.400 169.718 C 291.042 169.867,291.050 169.874,292.650 169.936 C 299.380 170.197,304.287 164.564,304.373 156.477 C 304.437 150.513,301.165 143.800,297.516 142.408 C 296.792 142.132,295.660 141.671,295.000 141.384 C 293.013 140.519,252.945 140.376,252.171 141.231 M341.835 145.800 C 341.982 146.900,342.169 147.875,342.251 147.967 C 342.610 148.368,342.346 144.939,341.977 144.400 C 341.686 143.974,341.645 144.380,341.835 145.800 M333.275 146.200 C 333.265 146.860,333.411 147.760,333.600 148.200 L 333.944 149.000 333.925 148.200 C 333.914 147.760,333.768 146.860,333.600 146.200 L 333.295 145.000 333.275 146.200 M312.846 148.400 C 312.827 148.950,312.987 149.670,313.200 150.000 C 313.694 150.764,313.694 149.942,313.200 148.400 L 312.880 147.400 312.846 148.400 M352.020 155.800 C 351.975 162.097,351.760 165.402,351.161 169.000 C 350.721 171.640,350.263 174.655,350.142 175.700 C 350.021 176.745,349.760 177.600,349.561 177.600 C 349.363 177.600,349.197 177.915,349.194 178.300 C 349.184 179.565,346.747 185.703,345.106 188.600 C 344.857 189.040,344.382 189.940,344.050 190.600 C 343.719 191.260,343.212 192.038,342.923 192.329 C 342.285 192.973,342.619 194.674,343.606 195.800 C 343.991 196.240,344.602 197.185,344.963 197.900 C 345.325 198.615,345.796 199.200,346.010 199.200 C 346.225 199.200,346.400 199.560,346.400 200.000 C 346.400 200.440,346.545 200.800,346.723 200.800 C 346.901 200.800,347.376 201.565,347.779 202.500 C 348.183 203.435,348.847 204.909,349.256 205.775 C 349.665 206.641,350.000 207.688,350.000 208.101 C 350.000 208.515,350.164 209.159,350.365 209.535 C 350.945 210.618,352.799 217.884,352.806 219.098 C 352.809 219.704,352.987 220.470,353.200 220.800 C 353.784 221.704,353.718 220.536,352.982 216.973 C 351.346 209.055,347.031 198.770,343.887 195.296 C 343.071 194.394,342.987 192.675,343.729 192.059 C 344.502 191.417,348.308 183.138,349.181 180.200 C 349.442 179.320,349.811 178.240,350.001 177.800 C 350.190 177.360,350.454 176.370,350.586 175.600 C 350.718 174.830,351.010 173.210,351.234 172.000 C 352.205 166.757,352.457 164.198,352.649 157.600 C 352.762 153.683,352.682 149.895,352.466 149.000 C 352.175 147.793,352.066 149.463,352.020 155.800 M334.155 154.600 C 334.156 157.460,334.220 158.578,334.297 157.083 C 334.374 155.589,334.374 153.249,334.296 151.883 C 334.218 150.518,334.155 151.740,334.155 154.600 M342.510 156.800 C 342.512 163.638,342.537 163.897,342.840 160.210 C 343.021 158.015,343.020 154.685,342.838 152.810 C 342.554 149.875,342.508 150.430,342.510 156.800 M313.727 156.800 C 313.729 161.224,313.797 162.141,313.967 160.000 C 314.097 158.350,314.096 155.560,313.964 153.800 C 313.784 151.400,313.725 152.149,313.727 156.800 M333.496 161.333 C 333.333 161.736,333.216 162.726,333.236 163.533 L 333.272 165.000 333.658 163.658 C 334.122 162.046,333.988 160.117,333.496 161.333 M313.067 163.467 C 312.920 163.613,312.800 164.233,312.800 164.843 C 312.800 165.453,312.620 166.064,312.400 166.200 C 312.180 166.336,312.000 166.653,312.000 166.904 C 312.000 167.867,312.868 166.472,313.209 164.960 C 313.566 163.377,313.530 163.003,313.067 163.467 M342.064 165.250 C 342.029 165.608,341.898 166.508,341.773 167.250 C 341.588 168.355,341.629 168.471,341.998 167.891 C 342.246 167.502,342.377 166.602,342.289 165.891 C 342.200 165.181,342.099 164.893,342.064 165.250 M332.431 167.462 C 332.197 168.308,332.003 169.279,332.002 169.620 C 332.001 169.961,331.842 170.411,331.648 170.620 C 331.455 170.829,331.073 171.720,330.799 172.600 C 330.058 174.982,326.799 181.173,325.519 182.631 C 324.904 183.332,324.400 184.006,324.400 184.128 C 324.400 184.514,319.296 189.600,318.909 189.600 C 318.706 189.600,318.117 190.050,317.600 190.600 C 317.083 191.150,316.467 191.606,316.230 191.614 C 315.994 191.622,315.263 192.067,314.608 192.603 L 313.415 193.577 314.989 195.189 C 315.854 196.075,316.704 196.800,316.877 196.800 C 317.915 196.800,323.748 202.063,326.206 205.219 C 327.392 206.741,328.297 207.140,327.259 205.683 C 325.336 202.983,322.183 199.904,318.781 197.408 C 314.529 194.287,314.006 193.550,315.394 192.641 C 315.932 192.288,316.488 192.000,316.630 192.000 C 316.952 192.000,320.571 189.015,322.208 187.400 C 324.063 185.570,326.667 182.163,328.127 179.655 C 329.252 177.723,329.919 176.239,332.013 171.000 C 332.537 169.690,333.251 166.317,333.047 166.114 C 332.943 166.010,332.666 166.617,332.431 167.462 M310.790 169.419 C 309.563 171.805,305.155 175.921,302.391 177.263 C 297.299 179.734,297.402 179.727,260.800 179.986 L 227.400 180.222 260.200 180.279 C 291.957 180.335,297.571 180.163,298.634 179.099 C 298.799 178.935,299.251 178.800,299.639 178.800 C 302.940 178.800,313.488 169.355,311.928 167.795 C 311.818 167.685,311.306 168.416,310.790 169.419 M340.905 171.200 C 339.431 178.943,335.498 187.328,330.901 192.529 C 329.371 194.261,329.267 193.963,332.600 197.421 C 337.047 202.035,340.068 206.071,340.814 208.395 C 341.132 209.383,341.445 209.909,341.511 209.565 C 341.906 207.515,338.741 202.926,332.485 196.479 C 330.636 194.573,330.434 194.211,330.885 193.601 C 331.168 193.216,332.193 191.858,333.163 190.583 C 337.070 185.442,341.878 173.537,341.524 169.877 C 341.426 168.868,341.296 169.145,340.905 171.200 M317.673 175.885 C 315.292 179.592,310.831 183.495,306.520 185.641 C 305.156 186.321,304.538 186.798,305.020 186.798 C 305.471 186.799,306.011 186.637,306.220 186.438 C 306.429 186.239,307.658 185.508,308.951 184.815 C 312.884 182.706,316.857 178.830,318.793 175.213 C 319.709 173.502,318.887 173.995,317.673 175.885 M222.447 178.900 C 222.401 180.383,222.417 180.399,223.900 180.353 C 225.349 180.307,225.360 180.297,224.203 180.049 C 223.286 179.853,222.947 179.514,222.751 178.597 C 222.503 177.440,222.493 177.451,222.447 178.900 M302.671 187.063 C 301.758 187.976,295.879 188.159,260.600 188.377 C 239.700 188.506,222.555 188.654,222.500 188.706 C 222.445 188.758,222.400 191.050,222.400 193.800 L 222.400 198.800 224.224 198.800 C 225.385 198.800,225.954 198.649,225.790 198.384 C 225.648 198.155,225.233 198.061,224.866 198.175 C 223.403 198.629,223.167 197.911,223.286 193.368 L 223.400 189.000 261.600 188.786 C 290.744 188.622,300.227 188.451,301.600 188.063 C 303.500 187.526,304.619 186.800,303.547 186.800 C 303.209 186.800,302.815 186.918,302.671 187.063 M243.530 198.700 C 252.841 198.760,267.961 198.760,277.130 198.700 C 286.298 198.640,278.680 198.591,260.200 198.591 C 241.720 198.591,234.218 198.640,243.530 198.700 M297.000 199.213 C 307.209 200.135,316.356 206.000,320.359 214.188 C 323.444 220.501,323.374 220.280,324.445 227.000 C 327.020 243.151,318.592 257.181,303.206 262.356 L 300.200 263.367 267.205 263.503 C 249.058 263.578,233.803 263.537,233.305 263.412 L 232.400 263.185 232.400 241.000 L 232.400 218.815 233.311 218.587 C 235.869 217.944,294.592 218.648,296.667 219.346 C 305.299 222.247,307.664 235.242,300.795 242.019 C 298.538 244.245,298.195 244.400,293.400 245.349 C 292.960 245.436,293.230 245.525,294.000 245.548 C 306.456 245.907,309.624 225.271,298.000 219.493 L 295.400 218.200 264.307 218.000 C 241.659 217.854,233.047 217.922,232.600 218.249 C 231.588 218.990,231.679 263.661,232.693 264.070 C 234.634 264.853,295.839 264.377,299.672 263.549 C 301.722 263.107,303.897 262.646,304.505 262.526 C 305.113 262.406,305.708 262.149,305.829 261.954 C 305.949 261.759,306.303 261.600,306.616 261.600 C 306.929 261.600,308.169 260.970,309.373 260.200 C 310.577 259.430,311.699 258.800,311.867 258.800 C 312.035 258.800,312.538 258.440,312.986 257.999 C 313.434 257.558,314.605 256.549,315.589 255.756 C 326.540 246.931,328.560 226.029,319.804 212.146 C 314.830 204.260,305.151 198.685,296.742 198.862 L 293.800 198.924 297.000 199.213 M328.000 207.308 C 328.000 207.441,328.717 208.866,329.594 210.475 C 330.471 212.084,331.191 213.635,331.194 213.922 C 331.197 214.209,331.575 215.267,332.034 216.274 C 332.492 217.280,332.966 218.710,333.086 219.452 C 333.206 220.193,333.444 220.800,333.614 220.800 C 334.032 220.800,333.056 217.166,331.826 214.139 C 330.675 211.308,328.000 206.532,328.000 207.308 M222.406 208.500 C 222.411 209.157,222.505 209.253,222.756 208.858 C 223.040 208.409,228.272 208.318,253.050 208.331 C 269.522 208.339,284.440 208.205,286.200 208.033 C 288.011 207.856,274.857 207.695,255.900 207.660 L 222.400 207.600 222.406 208.500 M293.400 208.397 C 297.446 208.836,301.380 210.089,303.662 211.666 C 304.246 212.070,304.905 212.400,305.127 212.400 C 305.349 212.400,306.635 213.525,307.985 214.900 C 311.560 218.540,311.600 218.591,311.600 219.491 C 311.600 219.944,311.870 220.418,312.200 220.545 C 312.530 220.671,312.800 221.130,312.800 221.564 C 312.800 221.998,312.960 222.452,313.156 222.573 C 313.819 222.983,314.110 225.781,314.136 232.000 C 314.160 237.601,313.970 239.222,312.987 241.800 C 312.762 242.392,312.802 242.490,313.143 242.179 C 314.733 240.722,315.633 229.106,314.458 225.200 C 311.310 214.736,303.633 208.534,293.400 208.187 L 290.600 208.093 293.400 208.397 M341.840 211.466 C 342.208 212.999,342.400 213.144,342.400 211.890 C 342.400 211.317,342.213 210.732,341.984 210.590 C 341.711 210.421,341.662 210.723,341.840 211.466 M342.468 214.200 C 342.487 216.111,343.117 217.819,343.132 216.000 C 343.138 215.230,342.989 214.240,342.800 213.800 C 342.508 213.121,342.458 213.181,342.468 214.200 M343.522 227.326 C 343.670 236.165,343.072 243.131,341.780 247.600 C 341.562 248.353,341.607 248.493,341.959 248.166 C 343.503 246.736,345.047 223.005,343.748 220.676 C 343.544 220.311,343.451 223.066,343.522 227.326 M334.285 224.200 C 334.609 227.790,334.602 237.546,334.274 240.400 L 334.021 242.600 334.593 240.200 C 335.324 237.135,335.320 228.841,334.586 224.600 L 334.033 221.400 334.285 224.200 M353.713 231.000 C 353.713 238.794,353.740 239.107,354.082 235.342 C 354.307 232.865,354.307 229.591,354.082 226.942 C 353.731 222.807,353.713 223.001,353.713 231.000 M250.000 227.139 L 251.400 227.400 251.508 236.177 C 251.600 243.638,251.714 245.063,252.270 245.677 C 253.029 246.516,290.888 246.828,291.400 246.000 C 291.564 245.735,285.067 245.600,272.211 245.600 C 255.551 245.600,252.743 245.517,252.551 245.017 C 252.428 244.696,252.299 240.511,252.264 235.717 L 252.200 227.000 250.400 226.939 C 248.749 226.882,248.716 226.899,250.000 227.139 M353.229 240.200 C 352.912 243.863,350.824 252.867,349.612 255.800 C 347.108 261.858,346.540 262.925,343.237 267.777 C 338.398 274.884,332.300 280.321,324.613 284.379 C 321.489 286.029,314.525 288.800,313.504 288.800 C 313.143 288.800,312.736 288.980,312.600 289.200 C 312.293 289.696,312.199 289.705,314.600 289.021 C 324.527 286.196,338.802 276.677,341.361 271.176 C 341.560 270.749,341.857 270.400,342.022 270.400 C 342.370 270.400,346.685 263.655,347.657 261.594 C 349.052 258.634,349.600 257.258,349.600 256.720 C 349.600 256.412,349.769 255.989,349.975 255.780 C 350.984 254.759,353.967 241.551,353.469 240.312 C 353.356 240.030,353.248 239.980,353.229 240.200 M311.773 244.063 C 311.396 244.798,310.663 245.909,310.144 246.531 C 309.625 247.153,309.193 247.873,309.184 248.131 C 309.137 249.508,301.592 253.931,297.644 254.896 C 296.424 255.194,286.667 255.425,268.800 255.581 L 241.800 255.816 267.760 255.908 C 299.046 256.019,301.237 255.744,307.061 250.971 C 309.246 249.181,313.206 243.472,312.649 242.916 C 312.545 242.811,312.150 243.327,311.773 244.063 M333.467 243.467 C 333.320 243.613,333.211 244.108,333.225 244.567 C 333.249 245.333,333.282 245.323,333.634 244.442 C 334.026 243.463,333.944 242.989,333.467 243.467 M332.692 245.842 C 332.531 246.002,332.405 246.508,332.412 246.967 C 332.423 247.736,332.456 247.745,332.840 247.085 C 333.288 246.316,333.173 245.360,332.692 245.842 M330.393 251.465 C 327.719 256.696,322.723 262.631,318.650 265.414 C 315.766 267.385,314.131 268.414,313.300 268.782 C 312.805 269.001,312.400 269.362,312.400 269.583 C 312.400 269.805,313.075 269.604,313.900 269.136 C 319.745 265.825,322.867 263.129,327.188 257.663 C 328.973 255.404,332.519 248.957,332.314 248.342 C 332.243 248.130,331.379 249.535,330.393 251.465 M341.128 249.800 C 340.630 252.267,338.374 257.415,336.415 260.554 C 334.978 262.857,334.745 263.393,335.612 262.400 C 336.284 261.630,337.071 260.550,337.360 260.000 C 340.178 254.642,341.713 250.771,341.515 249.519 C 341.387 248.706,341.342 248.739,341.128 249.800 M330.601 267.682 C 327.068 271.227,320.885 275.696,318.000 276.789 C 317.230 277.081,316.060 277.542,315.400 277.813 C 312.747 278.903,307.348 280.547,305.200 280.918 C 304.436 281.050,304.530 281.103,305.600 281.141 C 307.078 281.194,314.063 279.237,315.911 278.252 C 316.510 277.933,317.720 277.366,318.600 276.993 C 320.187 276.320,321.547 275.506,325.400 272.921 C 327.572 271.465,334.400 264.980,334.400 264.373 C 334.400 263.849,334.567 263.704,330.601 267.682 M310.180 270.351 C 309.971 270.544,308.857 271.008,307.705 271.381 C 305.943 271.953,304.560 272.800,305.389 272.800 C 305.825 272.800,312.000 270.344,312.000 270.171 C 312.000 269.855,310.564 269.997,310.180 270.351 M222.432 273.300 L 222.400 274.400 260.300 274.382 C 296.170 274.364,298.382 274.322,301.600 273.596 C 303.489 273.170,304.200 272.912,303.200 273.016 C 295.458 273.816,288.921 273.955,258.400 273.966 C 239.370 273.973,223.602 273.848,223.360 273.689 C 223.118 273.530,222.817 273.130,222.692 272.800 C 222.558 272.450,222.450 272.658,222.432 273.300 M301.400 281.600 L 300.200 281.905 301.600 281.947 C 302.370 281.969,303.270 281.813,303.600 281.600 C 304.339 281.123,303.276 281.123,301.400 281.600 M213.200 282.500 C 213.200 282.665,230.795 282.757,252.300 282.705 C 273.805 282.653,285.100 282.563,277.400 282.506 C 240.657 282.231,213.200 282.228,213.200 282.500 M295.200 282.400 L 293.400 282.680 295.800 282.734 C 297.120 282.763,298.470 282.613,298.800 282.400 C 299.501 281.947,298.115 281.947,295.200 282.400 M310.200 290.000 C 309.908 290.473,310.299 290.473,311.400 290.000 C 312.171 289.669,312.169 289.655,311.324 289.628 C 310.842 289.613,310.336 289.780,310.200 290.000 M306.659 290.674 C 306.508 290.825,305.263 291.102,303.892 291.290 C 302.522 291.478,300.410 291.795,299.200 291.995 L 297.000 292.358 299.600 292.172 C 302.351 291.976,305.553 291.490,308.200 290.868 L 309.800 290.492 308.367 290.446 C 307.578 290.421,306.810 290.523,306.659 290.674 " stroke="none" fill="#444444" fill-rule="evenodd"></path></g></svg>